<svg width="18" height="18" viewBox="0 0 18 18" fill="none" xmlns="http://www.w3.org/2000/svg">
<g opacity="0.869234">
<path fill-rule="evenodd" clip-rule="evenodd" d="M8.99998 4.37251L10.845 6.21751C11.1375 6.51001 11.61 6.51001 11.9025 6.21751C12.195 5.92501 12.195 5.45251 11.9025 5.16001L9.52498 2.77501C9.23248 2.48251 8.75998 2.48251 8.46748 2.77501L6.08998 5.16001C5.79748 5.45251 5.79748 5.92501 6.08998 6.21751C6.38248 6.51001 6.85498 6.51001 7.14748 6.21751L8.99998 4.37251ZM8.99998 13.6275L7.15498 11.7825C6.86248 11.49 6.38998 11.49 6.09748 11.7825C5.80498 12.075 5.80498 12.5475 6.09748 12.84L8.47498 15.225C8.76748 15.5175 9.23998 15.5175 9.53248 15.225L11.91 12.8475C12.2025 12.555 12.2025 12.0825 11.91 11.79C11.6175 11.4975 11.145 11.4975 10.8525 11.79L8.99998 13.6275Z" fill="#6E7191"/>
</g>
</svg>
