<svg width="87" height="17" viewBox="0 0 87 17" fill="none" xmlns="http://www.w3.org/2000/svg">
<g clip-path="url(#clip0_819_15358)">
<path d="M9.07532 2.7542H5.67717V13.0501H3.40289V2.7542H0V0.623962H9.07532V2.7542Z" fill="white"/>
<path d="M12.701 4.58215C13.5136 4.56915 14.3159 4.76492 15.0312 5.15072C15.7124 5.49949 16.2804 6.03489 16.6687 6.69439C17.0657 7.3785 17.2688 8.15788 17.2562 8.94877C17.269 9.73997 17.0658 10.5197 16.6687 11.2041C16.2777 11.866 15.7108 12.4065 15.0312 12.7658C14.3123 13.1401 13.5114 13.3293 12.701 13.3163C11.8847 13.328 11.078 13.139 10.3519 12.7658C9.67985 12.4024 9.11987 11.8625 8.73238 11.2041C8.3352 10.5197 8.13208 9.73997 8.14485 8.94877C8.13221 8.15788 8.33532 7.3785 8.73238 6.69439C9.11716 6.03846 9.67824 5.50364 10.3519 5.15072C11.0744 4.76603 11.8825 4.57043 12.701 4.58215ZM12.701 6.64132C12.0244 6.64132 11.4666 6.85454 11.0275 7.28096C10.6011 7.69539 10.3875 8.25132 10.3869 8.94877C10.3863 9.64621 10.5998 10.2085 11.0275 10.6355C11.4697 11.0499 12.0276 11.2572 12.701 11.2572C13.3744 11.2572 13.9259 11.0499 14.3555 10.6355C14.7826 10.2091 14.9961 9.64685 14.9961 8.94877C14.9961 8.25069 14.7826 7.69476 14.3555 7.28096C13.931 6.85454 13.3795 6.64132 12.701 6.64132Z" fill="white"/>
<path d="M21.8015 13.3164C20.9 13.3164 20.1646 13.0321 19.5954 12.4635C19.037 11.895 18.758 11.031 18.7587 9.87179V4.84943H21.0007V9.48137C21.0007 10.0973 21.1372 10.5591 21.4101 10.8668C21.683 11.1624 22.0621 11.3103 22.5472 11.3103C23.1158 11.3103 23.5609 11.1091 23.8824 10.7066C24.2027 10.2922 24.3629 9.65321 24.3629 8.78961V4.84943H26.5519V13.051H24.3998V11.7907H24.3648C23.7949 12.8078 22.9405 13.3164 21.8015 13.3164Z" fill="white"/>
<path d="M32.693 13.3165C31.8788 13.3307 31.0732 13.148 30.3448 12.7839C29.6711 12.4306 29.11 11.8955 28.7253 11.2393C28.3364 10.5396 28.1401 9.74922 28.1567 8.94889C28.1403 8.14887 28.3365 7.35882 28.7253 6.65945C29.1077 6.00615 29.6698 5.47656 30.3448 5.13379C31.0696 4.75806 31.8767 4.56884 32.693 4.58322C33.7123 4.57602 34.7125 4.85936 35.5766 5.40007L34.629 7.19296C34.0619 6.82506 33.4011 6.62772 32.7252 6.62439C32.0499 6.62439 31.4923 6.8436 31.0526 7.28203C30.6155 7.7072 30.3969 8.26282 30.3969 8.94889C30.3969 9.63496 30.6164 10.1972 31.0555 10.6356C31.4939 11.0621 32.0514 11.275 32.728 11.2743C33.404 11.2711 34.0648 11.0737 34.6318 10.7058L35.5794 12.4987C34.7144 13.0398 33.7132 13.3234 32.693 13.3165Z" fill="white"/>
<path d="M39.1365 6.02064H39.1725C39.7771 5.06165 40.6669 4.58216 41.842 4.58216C42.7896 4.58216 43.5429 4.86044 44.102 5.41701C44.6611 5.97357 44.9397 6.83148 44.9378 7.99073V13.0501H42.7498V8.5015C42.7498 7.23801 42.1812 6.60627 41.0441 6.60627C40.4509 6.60627 39.9821 6.80147 39.6378 7.19189C39.3062 7.58231 39.14 8.19763 39.1394 9.03785V13.0501H36.9485V0.623962H39.1365V6.02064Z" fill="white"/>
<path d="M46.9437 4.84965H49.1147V6.0029H49.1507C49.4123 5.56314 49.787 5.20155 50.2357 4.95578C50.6982 4.70688 51.25 4.58242 51.8912 4.58242C52.5882 4.57643 53.2745 4.75389 53.8812 5.09698C54.4933 5.44925 54.9878 5.97438 55.3026 6.60653C55.659 7.25723 55.8368 8.03806 55.8362 8.94904C55.8355 9.86001 55.6577 10.6472 55.3026 11.3105C54.9841 11.9352 54.4901 12.4532 53.8812 12.8011C53.2748 13.1449 52.5884 13.3228 51.8912 13.3166C51.2494 13.3166 50.6975 13.1922 50.2357 12.9432C49.7876 12.6988 49.4129 12.3389 49.1507 11.9009H49.1147V16.6001H46.9437V4.84965ZM51.3388 11.2574C52.0027 11.2574 52.5366 11.0442 52.9402 10.6178C53.3559 10.192 53.5638 9.63575 53.5638 8.94904C53.5638 8.26233 53.3559 7.7064 52.9402 7.28123C52.5378 6.85481 52.004 6.64159 51.3388 6.64159C50.6735 6.64159 50.1337 6.85481 49.7193 7.28123C49.3169 7.70703 49.1153 8.26296 49.1147 8.94904C49.1141 9.63511 49.3156 10.1914 49.7193 10.6178C50.135 11.0442 50.6748 11.2574 51.3388 11.2574Z" fill="white"/>
<path d="M61.5024 4.58216C62.3153 4.56904 63.118 4.76481 63.8335 5.15073C64.5143 5.49977 65.0819 6.03513 65.4701 6.6944C65.8671 7.37851 66.0702 8.15789 66.0576 8.94878C66.0704 9.73998 65.8672 10.5197 65.4701 11.2041C65.0792 11.8657 64.5127 12.4063 63.8335 12.7658C63.1143 13.1402 62.3131 13.3294 61.5024 13.3163C60.6861 13.3281 59.8794 13.139 59.1533 12.7658C58.4812 12.4025 57.9213 11.8625 57.5338 11.2041C57.1366 10.5197 56.9335 9.73998 56.9462 8.94878C56.9336 8.15789 57.1367 7.37851 57.5338 6.6944C57.9186 6.03847 58.4796 5.50365 59.1533 5.15073C59.8758 4.76604 60.6839 4.57045 61.5024 4.58216ZM61.5024 6.64133C60.8258 6.64133 60.268 6.85455 59.8289 7.28097C59.4025 7.6954 59.1889 8.25133 59.1883 8.94878C59.1877 9.64622 59.4012 10.2085 59.8289 10.6355C60.268 11.05 60.8258 11.2572 61.5024 11.2572C62.179 11.2572 62.7305 11.05 63.1569 10.6355C63.584 10.2091 63.7975 9.64686 63.7975 8.94878C63.7975 8.2507 63.584 7.69477 63.1569 7.28097C62.7299 6.85455 62.1784 6.64133 61.5024 6.64133Z" fill="white"/>
<path d="M67.6856 4.84949H69.8746V13.0511H67.6856V4.84949ZM68.7886 0.499926C68.9836 0.493397 69.1779 0.527896 69.3588 0.60119C69.5396 0.674484 69.7031 0.784939 69.8386 0.925406C69.9794 1.06032 70.0902 1.22337 70.1638 1.40394C70.2375 1.58451 70.2722 1.77856 70.2659 1.97347C70.2695 2.16741 70.2336 2.36005 70.1603 2.53965C70.087 2.71925 69.978 2.88206 69.8398 3.01815C69.7015 3.15424 69.5371 3.26077 69.3563 3.33124C69.1756 3.40171 68.9825 3.43465 68.7886 3.42806C68.5953 3.43269 68.403 3.39899 68.2228 3.32889C68.0425 3.25878 67.878 3.15368 67.7386 3.01964C67.6049 2.88159 67.4998 2.71838 67.4295 2.53945C67.3593 2.36053 67.3252 2.16944 67.3293 1.97726C67.3224 1.78292 67.3553 1.58923 67.4259 1.40806C67.4966 1.2269 67.6035 1.06208 67.7402 0.923738C67.8769 0.785394 68.0403 0.676439 68.2206 0.603559C68.4009 0.530679 68.5942 0.495413 68.7886 0.499926Z" fill="white"/>
<path d="M76.9094 4.58247C77.857 4.58247 78.6101 4.86075 79.1685 5.41732C79.727 5.97389 80.0059 6.83179 80.0053 7.99104V13.0504H77.8163V8.50181C77.8163 7.23832 77.2528 6.60658 76.1257 6.60658C75.5325 6.60658 75.0641 6.80179 74.7204 7.1922C74.3767 7.58262 74.2046 8.19794 74.2039 9.03816V13.0504H72.033V4.8497H74.1859V6.09107H74.222C74.4848 5.62772 74.8653 5.24199 75.325 4.97289C75.8102 4.70724 76.3563 4.57268 76.9094 4.58247Z" fill="white"/>
<path d="M82.3782 13.0502V6.67745H80.8621V4.8495H82.3782V1.56506H84.5672V4.8495H86.2578V6.6784H84.5672V13.0511" fill="white"/>
</g>
<defs>
<clipPath id="clip0_819_15358">
<rect width="86.2577" height="16.1" fill="white" transform="translate(0 0.5)"/>
</clipPath>
</defs>
</svg>
