<svg width="16" height="16" viewBox="0 0 16 16" fill="none" xmlns="http://www.w3.org/2000/svg">
<path d="M12.6833 8.68334C12.55 8.55 12.3833 8.48334 12.2166 8.48334C12.05 8.48334 11.8833 8.55 11.75 8.68334L8.71662 11.7167V1.98334C8.71662 1.61667 8.41662 1.31667 8.04995 1.31667C7.68329 1.31667 7.38329 1.61667 7.38329 1.98334V11.7167L4.34995 8.7C4.08329 8.43333 3.66662 8.43333 3.39995 8.7C3.13328 8.96667 3.13328 9.38333 3.39995 9.65L7.56662 13.8C7.83328 14.0667 8.24996 14.0667 8.49996 13.8L12.6666 9.65C12.95 9.36667 12.95 8.95 12.6833 8.68334Z" fill="#69BC35"/>
</svg>
