<svg width="16" height="16" viewBox="0 0 16 16" fill="none" xmlns="http://www.w3.org/2000/svg">
<path fill-rule="evenodd" clip-rule="evenodd" d="M8 3.51277L5.22265 6.02871C4.94225 6.28271 4.48739 6.28199 4.20799 6.02709C3.92998 5.77346 3.93077 5.36391 4.20977 5.11117L7.39261 2.22791C7.72806 1.92403 8.27194 1.92403 8.60739 2.22791L11.7902 5.11117C12.0692 5.36391 12.07 5.77346 11.792 6.02709C11.5126 6.28199 11.0577 6.28271 10.7774 6.02871L8 3.51277ZM8 7.4034L5.22265 9.91934C4.94225 10.1733 4.48739 10.1726 4.20799 9.91772C3.92998 9.66409 3.93077 9.25454 4.20977 9.0018L7.39261 6.11854C7.72806 5.81466 8.27194 5.81466 8.60739 6.11854L11.7902 9.0018C12.0692 9.25454 12.07 9.66409 11.792 9.91772C11.5126 10.1726 11.0577 10.1733 10.7774 9.91934L8 7.4034ZM11.792 13.8083C11.5126 14.0632 11.0577 14.064 10.7774 13.81L8 11.294L5.22265 13.81C4.94225 14.064 4.48739 14.0632 4.20799 13.8083C3.92998 13.5547 3.93077 13.1452 4.20977 12.8924L7.39261 10.0092C7.72806 9.70529 8.27194 9.70529 8.60739 10.0092L11.7902 12.8924C12.0692 13.1452 12.07 13.5547 11.792 13.8083Z" fill="#ED6A61"/>
</svg>
